# xmcd CD database file generated by OrangeCD 5.2
#
# Track frame offsets:
#	150
#	11792
#	25927
#	41362
#	55390
#	69782
#	85290
#	92020
#	98065
#	103692
#	107412
#	110442
#	114672
#	121065
#
# Disc length: 1869 seconds
#
# Revision: 0
# Processed by: cddbd v1.5.1PL0 Copyright (c) Steve Scherf et al.
# Submitted via: OrangeCD 5.2
#
DISCID=a8074b0e
DTITLE=Leadbelly - Goodnight Irene
DYEAR=1900
DGENRE=Blues
TTITLE0=Goodnight Irene
TTITLE1=Looky Looky Yonder/Black Betty/Yellow Women's Doorbell
TTITLE2=Poor Howard/Green Corn
TTITLE3=De Kalb Blues
TTITLE4=The Gallis Pole
TTITLE5=The Bougeois Blues
TTITLE6=Noted Rider
TTITLE7=Big Fat Woman
TTITLE8=Borrow Love And Go
TTITLE9=Bring Me Li'l Water Silvy
TTITLE10=Julie Ann Johnson
TTITLE11=Line 'Em
TTITLE12=Whao, Back, Buck
TTITLE13=John Hardy
EXTD=
EXTT0=
EXTT1=
EXTT2=
EXTT3=
EXTT4=
EXTT5=
EXTT6=
EXTT7=
EXTT8=
EXTT9=
EXTT10=
EXTT11=
EXTT12=
EXTT13=
PLAYORDER=
